<?xml version="1.0" encoding="UTF-8"?>
<svg width="200" height="60" viewBox="0 0 200 60" fill="none" xmlns="http://www.w3.org/2000/svg">
  <path d="M50 15C45.5817 15 42 18.5817 42 23V37C42 41.4183 45.5817 45 50 45H60C64.4183 45 68 41.4183 68 37V23C68 18.5817 64.4183 15 60 15H50ZM50 20H60C61.6569 20 63 21.3431 63 23V37C63 38.6569 61.6569 40 60 40H50C48.3431 40 47 38.6569 47 37V23C47 21.3431 48.3431 20 50 20Z" fill="#00B2A9"/>
  <path d="M80 15C75.5817 15 72 18.5817 72 23V37C72 41.4183 75.5817 45 80 45H90C94.4183 45 98 41.4183 98 37V23C98 18.5817 94.4183 15 90 15H80ZM80 20H90C91.6569 20 93 21.3431 93 23V37C93 38.6569 91.6569 40 90 40H80C78.3431 40 77 38.6569 77 37V23C77 21.3431 78.3431 20 80 20Z" fill="#00B2A9"/>
  <path d="M110 15C105.582 15 102 18.5817 102 23V37C102 41.4183 105.582 45 110 45H120C124.418 45 128 41.4183 128 37V23C128 18.5817 124.418 15 120 15H110ZM110 20H120C121.657 20 123 21.3431 123 23V37C123 38.6569 121.657 40 120 40H110C108.343 40 107 38.6569 107 37V23C107 21.3431 108.343 20 110 20Z" fill="#00B2A9"/>
  <path d="M140 15H145V45H140V15Z" fill="#00B2A9"/>
</svg>
