<?xml version="1.0" encoding="UTF-8"?>
<svg width="200" height="60" viewBox="0 0 200 60" fill="none" xmlns="http://www.w3.org/2000/svg">
  <path d="M40 15H55C59.4183 15 63 18.5817 63 23V37C63 41.4183 59.4183 45 55 45H40V15ZM45 20V40H55C56.6569 40 58 38.6569 58 37V23C58 21.3431 56.6569 20 55 20H45Z" fill="#FF5722"/>
  <path d="M70 15H75V45H70V15Z" fill="#FF5722"/>
  <path d="M85 15H90L100 30L95 40H90L95 30L85 15Z" fill="#FF5722"/>
  <path d="M105 15H110V45H105V15Z" fill="#FF5722"/>
  <path d="M120 15H135C139.418 15 143 18.5817 143 23V37C143 41.4183 139.418 45 135 45H120V15ZM125 20V40H135C136.657 40 138 38.6569 138 37V23C138 21.3431 136.657 20 135 20H125Z" fill="#FF5722"/>
  <path d="M150 15H165C169.418 15 173 18.5817 173 23V37C173 41.4183 169.418 45 165 45H150V15ZM155 20V40H165C166.657 40 168 38.6569 168 37V23C168 21.3431 166.657 20 165 20H155Z" fill="#FF5722"/>
</svg>
