<?xml version="1.0" encoding="UTF-8"?>
<svg width="200" height="60" viewBox="0 0 200 60" fill="none" xmlns="http://www.w3.org/2000/svg">
  <path d="M40 15H55C59.4183 15 63 18.5817 63 23V37C63 41.4183 59.4183 45 55 45H40V15ZM45 20V40H55C56.6569 40 58 38.6569 58 37V23C58 21.3431 56.6569 20 55 20H45Z" fill="#4CAF50"/>
  <path d="M70 15H85C89.4183 15 93 18.5817 93 23V37C93 41.4183 89.4183 45 85 45H70V15ZM75 20V40H85C86.6569 40 88 38.6569 88 37V23C88 21.3431 86.6569 20 85 20H75Z" fill="#4CAF50"/>
  <path d="M100 15H115C119.418 15 123 18.5817 123 23V37C123 41.4183 119.418 45 115 45H100V15ZM105 20V40H115C116.657 40 118 38.6569 118 37V23C118 21.3431 116.657 20 115 20H105Z" fill="#4CAF50"/>
  <path d="M130 15H145C149.418 15 153 18.5817 153 23V37C153 41.4183 149.418 45 145 45H130V15ZM135 20V40H145C146.657 40 148 38.6569 148 37V23C148 21.3431 146.657 20 145 20H135Z" fill="#4CAF50"/>
  <path d="M160 15H165V45H160V15Z" fill="#4CAF50"/>
  <path d="M175 15H180V45H175V15Z" fill="#4CAF50"/>
</svg>
