<?xml version="1.0" encoding="UTF-8"?>
<svg width="200" height="60" viewBox="0 0 200 60" fill="none" xmlns="http://www.w3.org/2000/svg">
  <path d="M40 15H45V40H60V45H40V15Z" fill="#2196F3"/>
  <path d="M65 15H85V20H75V45H70V20H65V15Z" fill="#2196F3"/>
  <path d="M90 15H110C114.418 15 118 18.5817 118 23V37C118 41.4183 114.418 45 110 45H90V15ZM95 20V40H110C111.657 40 113 38.6569 113 37V23C113 21.3431 111.657 20 110 20H95Z" fill="#2196F3"/>
  <path d="M125 15H145C149.418 15 153 18.5817 153 23V37C153 41.4183 149.418 45 145 45H125V15ZM130 20V40H145C146.657 40 148 38.6569 148 37V23C148 21.3431 146.657 20 145 20H130Z" fill="#2196F3"/>
  <path d="M160 15H165V45H160V15Z" fill="#2196F3"/>
  <path d="M175 15H180V45H175V15Z" fill="#2196F3"/>
</svg>
