<?xml version="1.0" encoding="UTF-8"?>
<svg width="200" height="60" viewBox="0 0 200 60" fill="none" xmlns="http://www.w3.org/2000/svg">
  <path d="M40.5 15C36.9 15 34 17.9 34 21.5V38.5C34 42.1 36.9 45 40.5 45C44.1 45 47 42.1 47 38.5V21.5C47 17.9 44.1 15 40.5 15ZM40.5 40C39.7 40 39 39.3 39 38.5V21.5C39 20.7 39.7 20 40.5 20C41.3 20 42 20.7 42 21.5V38.5C42 39.3 41.3 40 40.5 40Z" fill="#326CE5"/>
  <path d="M60.5 15C56.9 15 54 17.9 54 21.5V38.5C54 42.1 56.9 45 60.5 45C64.1 45 67 42.1 67 38.5V21.5C67 17.9 64.1 15 60.5 15ZM60.5 40C59.7 40 59 39.3 59 38.5V21.5C59 20.7 59.7 20 60.5 20C61.3 20 62 20.7 62 21.5V38.5C62 39.3 61.3 40 60.5 40Z" fill="#326CE5"/>
  <path d="M80.5 15C76.9 15 74 17.9 74 21.5V38.5C74 42.1 76.9 45 80.5 45C84.1 45 87 42.1 87 38.5V21.5C87 17.9 84.1 15 80.5 15ZM80.5 40C79.7 40 79 39.3 79 38.5V21.5C79 20.7 79.7 20 80.5 20C81.3 20 82 20.7 82 21.5V38.5C82 39.3 81.3 40 80.5 40Z" fill="#326CE5"/>
  <path d="M94 15H99V45H94V15Z" fill="#326CE5"/>
  <path d="M114 15C110.4 15 107.5 17.9 107.5 21.5V38.5C107.5 42.1 110.4 45 114 45C117.6 45 120.5 42.1 120.5 38.5V33H115.5V38.5C115.5 39.3 114.8 40 114 40C113.2 40 112.5 39.3 112.5 38.5V21.5C112.5 20.7 113.2 20 114 20C114.8 20 115.5 20.7 115.5 21.5V27H120.5V21.5C120.5 17.9 117.6 15 114 15Z" fill="#326CE5"/>
  <path d="M134 15C130.4 15 127.5 17.9 127.5 21.5V38.5C127.5 42.1 130.4 45 134 45C137.6 45 140.5 42.1 140.5 38.5V33H135.5V38.5C135.5 39.3 134.8 40 134 40C133.2 40 132.5 39.3 132.5 38.5V21.5C132.5 20.7 133.2 20 134 20C134.8 20 135.5 20.7 135.5 21.5V27H140.5V21.5C140.5 17.9 137.6 15 134 15Z" fill="#326CE5"/>
  <path d="M154 15C150.4 15 147.5 17.9 147.5 21.5V38.5C147.5 42.1 150.4 45 154 45C157.6 45 160.5 42.1 160.5 38.5V21.5C160.5 17.9 157.6 15 154 15ZM154 40C153.2 40 152.5 39.3 152.5 38.5V21.5C152.5 20.7 153.2 20 154 20C154.8 20 155.5 20.7 155.5 21.5V38.5C155.5 39.3 154.8 40 154 40Z" fill="#326CE5"/>
</svg>
