<svg xmlns="http://www.w3.org/2000/svg" viewBox="0 0 200 60" fill="none">
  <path d="M30 15C21.716 15 15 21.716 15 30C15 38.284 21.716 45 30 45C38.284 45 45 38.284 45 30C45 21.716 38.284 15 30 15ZM30 40C24.477 40 20 35.523 20 30C20 24.477 24.477 20 30 20C35.523 20 40 24.477 40 30C40 35.523 35.523 40 30 40Z" fill="#00A86B"/>
  <path d="M30 20V30H40" stroke="#00A86B" stroke-width="2"/>
  <path d="M60 20H65V23C66.5 21 69 20 72 20C77 20 80 23 80 28V40H75V29C75 26 73 25 71 25C68 25 65 27 65 31V40H60V20Z" fill="#333333"/>
  <path d="M85 30C85 24.477 89.477 20 95 20C100.523 20 105 24.477 105 30C105 35.523 100.523 40 95 40C89.477 40 85 35.523 85 30ZM100 30C100 27.239 97.761 25 95 25C92.239 25 90 27.239 90 30C90 32.761 92.239 35 95 35C97.761 35 100 32.761 100 30Z" fill="#333333"/>
  <path d="M110 30C110 24.477 114.477 20 120 20C125.523 20 130 24.477 130 30C130 35.523 125.523 40 120 40C114.477 40 110 35.523 110 30ZM125 30C125 27.239 122.761 25 120 25C117.239 25 115 27.239 115 30C115 32.761 117.239 35 120 35C122.761 35 125 32.761 125 30Z" fill="#333333"/>
  <path d="M135 20H140V40H135V20Z" fill="#333333"/>
  <path d="M145 20H150V22C151.5 20.5 154 19 157 19C162 19 165 22 165 27V40H160V28C160 25 158 24 156 24C153 24 150 26 150 30V40H145V20Z" fill="#333333"/>
  <path d="M170 20H175V40H170V20Z" fill="#333333"/>
</svg>
