<svg xmlns="http://www.w3.org/2000/svg" viewBox="0 0 200 60" fill="none">
  <path d="M30 15C21.716 15 15 21.716 15 30C15 38.284 21.716 45 30 45C38.284 45 45 38.284 45 30C45 21.716 38.284 15 30 15ZM30 40C24.477 40 20 35.523 20 30C20 24.477 24.477 20 30 20C35.523 20 40 24.477 40 30C40 35.523 35.523 40 30 40Z" fill="#FF6B00"/>
  <path d="M60 20C55.029 20 51 24.029 51 29C51 33.971 55.029 38 60 38C64.971 38 69 33.971 69 29C69 24.029 64.971 20 60 20ZM60 33C57.791 33 56 31.209 56 29C56 26.791 57.791 25 60 25C62.209 25 64 26.791 64 29C64 31.209 62.209 33 60 33Z" fill="#333333"/>
  <path d="M75 20H80V23C81.5 21 84 20 87 20C92 20 95 23 95 28V40H90V29C90 26 88 25 86 25C83 25 80 27 80 31V40H75V20Z" fill="#333333"/>
  <path d="M100 20H105V23C106.5 21 109 20 112 20C117 20 120 23 120 28V40H115V29C115 26 113 25 111 25C108 25 105 27 105 31V40H100V20Z" fill="#333333"/>
  <path d="M125 20H130V40H125V20Z" fill="#333333"/>
</svg>
