<svg xmlns="http://www.w3.org/2000/svg" viewBox="0 0 200 60" fill="none">
  <path d="M20 20H30L40 40H30L20 20Z" fill="#FF9800"/>
  <path d="M20 40L30 20L40 40H20Z" fill="#FF9800" fill-opacity="0.5"/>
  <path d="M55 20H60V23C61.5 21 64 20 67 20C72 20 75 23 75 28V40H70V29C70 26 68 25 66 25C63 25 60 27 60 31V40H55V20Z" fill="#333333"/>
  <path d="M80 20H85V23C86.5 21 89 20 92 20C97 20 100 23 100 28V40H95V29C95 26 93 25 91 25C88 25 85 27 85 31V40H80V20Z" fill="#333333"/>
  <path d="M105 20H110V23C111.5 21 114 20 117 20C122 20 125 23 125 28V40H120V29C120 26 118 25 116 25C113 25 110 27 110 31V40H105V20Z" fill="#333333"/>
  <path d="M130 20H135V40H130V20Z" fill="#333333"/>
  <path d="M140 20H145V22C146.5 20.5 149 19 152 19C157 19 160 22 160 27V40H155V28C155 25 153 24 151 24C148 24 145 26 145 30V40H140V20Z" fill="#333333"/>
  <path d="M165 20H170V23C171.5 21 174 20 177 20C182 20 185 23 185 28V40H180V29C180 26 178 25 176 25C173 25 170 27 170 31V40H165V20Z" fill="#333333"/>
</svg>
