<svg xmlns="http://www.w3.org/2000/svg" viewBox="0 0 200 60" fill="none">
  <rect x="15" y="20" width="30" height="20" rx="2" fill="#4CAF50"/>
  <path d="M20 25H40V35H20V25Z" fill="white"/>
  <path d="M25 30L30 33L35 27" stroke="#4CAF50" stroke-width="2"/>
  <path d="M55 20H60V40H55V20Z" fill="#333333"/>
  <path d="M65 20H70V23C71.5 21 74 20 77 20C82 20 85 23 85 28V40H80V29C80 26 78 25 76 25C73 25 70 27 70 31V40H65V20Z" fill="#333333"/>
  <path d="M90 20H95V22C96.5 20.5 99 19 102 19C107 19 110 22 110 27V40H105V28C105 25 103 24 101 24C98 24 95 26 95 30V40H90V20Z" fill="#333333"/>
  <path d="M115 35V30H125V35H115Z" fill="#333333"/>
  <path d="M130 20C125.029 20 121 24.029 121 29C121 33.971 125.029 38 130 38C134.971 38 139 33.971 139 29C139 24.029 134.971 20 130 20ZM130 33C127.791 33 126 31.209 126 29C126 26.791 127.791 25 130 25C132.209 25 134 26.791 134 29C134 31.209 132.209 33 130 33Z" fill="#333333"/>
  <path d="M145 20H150V23C151.5 21 154 20 157 20C162 20 165 23 165 28V40H160V29C160 26 158 25 156 25C153 25 150 27 150 31V40H145V20Z" fill="#333333"/>
  <path d="M170 20H175V22C176.5 20.5 179 19 182 19C187 19 190 22 190 27V40H185V28C185 25 183 24 181 24C178 24 175 26 175 30V40H170V20Z" fill="#333333"/>
</svg>
