<svg xmlns="http://www.w3.org/2000/svg" viewBox="0 0 200 60" fill="none">
  <path d="M30 15L20 30L30 45L40 30L30 15Z" fill="#6C63FF"/>
  <path d="M60 20H65L70 30L75 20H80L72 35L80 50H75L70 40L65 50H60L68 35L60 20Z" fill="#333333"/>
  <path d="M85 20H90V40H85V20Z" fill="#333333"/>
  <path d="M95 20H100V23C101.5 21 104 20 107 20C112 20 115 23 115 28V40H110V29C110 26 108 25 106 25C103 25 100 27 100 31V40H95V20Z" fill="#333333"/>
  <path d="M120 30C120 24.477 124.477 20 130 20C135.523 20 140 24.477 140 30C140 35.523 135.523 40 130 40C124.477 40 120 35.523 120 30ZM135 30C135 27.239 132.761 25 130 25C127.239 25 125 27.239 125 30C125 32.761 127.239 35 130 35C132.761 35 135 32.761 135 30Z" fill="#333333"/>
  <path d="M145 20H150V22C151.5 20.5 154 19 157 19C162 19 165 22 165 27V40H160V28C160 25 158 24 156 24C153 24 150 26 150 30V40H145V20Z" fill="#333333"/>
  <path d="M170 20H175V22C176.5 20.5 179 19 182 19C187 19 190 22 190 27V40H185V28C185 25 183 24 181 24C178 24 175 26 175 30V40H170V20Z" fill="#333333"/>
</svg>
