<svg xmlns="http://www.w3.org/2000/svg" viewBox="0 0 24 24" width="24" height="24">
  <path d="M11.085 10.424c.39-.52.976-.856 1.617-.856.642 0 1.227.336 1.618.856l3.084 4.13c.391.52.391 1.19 0 1.71-.39.52-.976.856-1.617.856-.642 0-1.228-.335-1.618-.855l-1.467-1.967-1.467 1.967c-.39.52-.976.855-1.618.855-.641 0-1.227-.335-1.617-.855-.39-.52-.39-1.19 0-1.71l3.085-4.131zm-7.42-2.34c-.39-.52-.39-1.19 0-1.71.39-.52.976-.855 1.617-.855.642 0 1.227.335 1.618.855l1.467 1.967 1.467-1.967c.39-.52.976-.855 1.618-.855.641 0 1.227.335 1.617.855.39.52.39 1.19 0 1.71l-3.085 4.131c-.39.52-.976.856-1.617.856-.642 0-1.227-.336-1.618-.856L3.665 8.084z" fill="#0052CC"/>
</svg>
