<svg xmlns="http://www.w3.org/2000/svg" viewBox="0 0 87.3 78" width="87.3" height="78">
  <path d="m6.6 66.85 3.85 6.65c.8 1.4 1.95 2.5 3.3 3.3L43.1 38.2 21.6 3.35c-1.35.8-2.5 1.9-3.3 3.3l-14.6 25.9c-1.35 2.45-1.35 5.4 0 7.85l2.9 5.15z" fill="#0066da"/>
  <path d="m45.15 36.95-28.1 48.8c2.45 1.2 5.25 1.35 7.85 0l29.6-16.55c1.35-.8 2.5-1.9 3.3-3.3l3.85-6.65-16.5-22.3z" fill="#00ac47"/>
  <path d="m59.15 66.85-3.85 6.65c-.8 1.4-1.95 2.5-3.3 3.3l29.6 16.55c2.45 1.2 5.25 1.2 7.7 0 1.35-.8 2.5-1.9 3.3-3.3l14.6-25.9c1.35-2.45 1.35-5.4 0-7.85L73.5 3.35c-1.35.8-2.5 1.9-3.3 3.3L45.15 36.95l14 29.9z" fill="#ea4335"/>
  <path d="m45.15 36.95 26.6-33.6c-2.45-1.2-5.25-1.2-7.7 0l-29.6 16.55c-1.35.8-2.5 1.9-3.3 3.3L27.3 29.8l17.85 7.15z" fill="#00832d"/>
  <path d="m45.15 36.95-17.85-7.15-3.85 6.65c-.8 1.4-1.35 2.95-1.6 4.55l23.3-4.05z" fill="#2684fc"/>
  <path d="m45.15 36.95-23.3 4.05c.25 1.6.8 3.15 1.6 4.55l21.7-8.6z" fill="#00ac47"/>
</svg>
