<?xml version="1.0" encoding="UTF-8"?>
<svg width="98" height="96" viewBox="0 0 98 96" xmlns="http://www.w3.org/2000/svg">
    <path d="M48.854 0C21.839 0 0 21.839 0 48.854c0 26.984 21.839 48.854 48.854 48.854 27.015 0 48.854-21.87 48.854-48.854C97.708 21.839 75.869 0 48.854 0zm23.404 62.808c-1.456 3.703-5.797 5.283-9.5 3.796L29.664 53.809c-3.703-1.487-5.283-5.797-3.796-9.5l12.795-33.094c1.456-3.703 5.797-5.283 9.5-3.796l33.094 12.795c3.703 1.487 5.283 5.797 3.796 9.5l-12.795 33.094z" fill="#5E6AD2"/>
</svg>
