<?xml version="1.0" encoding="UTF-8"?>
<svg width="98" height="96" viewBox="0 0 98 96" xmlns="http://www.w3.org/2000/svg">
    <path d="M27.697 62.432a9.724 9.724 0 0 1-9.724 9.724 9.724 9.724 0 0 1-9.724-9.724 9.724 9.724 0 0 1 9.724-9.724h9.724v9.724zm4.862 0a9.724 9.724 0 0 1 9.724-9.724 9.724 9.724 0 0 1 9.724 9.724v24.31a9.724 9.724 0 0 1-9.724 9.724 9.724 9.724 0 0 1-9.724-9.724v-24.31z" fill="#E01E5A"/>
    <path d="M42.283 27.697a9.724 9.724 0 0 1-9.724-9.724A9.724 9.724 0 0 1 42.283 8.25a9.724 9.724 0 0 1 9.724 9.724v9.724h-9.724zm0 4.862a9.724 9.724 0 0 1 9.724 9.724 9.724 9.724 0 0 1-9.724 9.724H17.973a9.724 9.724 0 0 1-9.724-9.724 9.724 9.724 0 0 1 9.724-9.724h24.31z" fill="#36C5F0"/>
    <path d="M77.018 42.283a9.724 9.724 0 0 1 9.724-9.724 9.724 9.724 0 0 1 9.724 9.724 9.724 9.724 0 0 1-9.724 9.724h-9.724v-9.724zm-4.862 0a9.724 9.724 0 0 1-9.724 9.724 9.724 9.724 0 0 1-9.724-9.724V17.973a9.724 9.724 0 0 1 9.724-9.724 9.724 9.724 0 0 1 9.724 9.724v24.31z" fill="#2EB67D"/>
    <path d="M62.432 77.018a9.724 9.724 0 0 1 9.724 9.724 9.724 9.724 0 0 1-9.724 9.724 9.724 9.724 0 0 1-9.724-9.724v-9.724h9.724zm0-4.862a9.724 9.724 0 0 1-9.724-9.724 9.724 9.724 0 0 1 9.724-9.724h24.31a9.724 9.724 0 0 1 9.724 9.724 9.724 9.724 0 0 1-9.724 9.724h-24.31z" fill="#ECB22E"/>
</svg>
