<svg xmlns="http://www.w3.org/2000/svg" viewBox="0 0 24 24" fill="none" stroke="#41cfa4" stroke-width="2" stroke-linecap="round" stroke-linejoin="round">
  <path d="M12 2a9 9 0 0 1 9 9c0 3.18-1.65 5.98-4.14 7.61a1 1 0 0 1-1.45-.79l-.33-2.48a1 1 0 0 0-.9-.89l-2.27-.27a1 1 0 0 1-.89-1.11l.4-3.2a1 1 0 0 0-.27-.85l-2.9-2.9a1 1 0 0 1 0-1.42l2.9-2.9a1 1 0 0 0 .27-.85L11 3.27a1 1 0 0 1 .89-1.11l2.27-.27a1 1 0 0 0 .9-.89L15.4 0a1 1 0 0 1 1.45-.79A9 9 0 0 1 21 7.58"></path>
  <circle cx="12" cy="12" r="3"></circle>
</svg>
